<svg width="27" height="27" viewBox="0 0 27 27" fill="none" xmlns="http://www.w3.org/2000/svg">
<path fill-rule="evenodd" clip-rule="evenodd" d="M0.562889 1.70514C0.388178 1.70902 0.204861 1.7131 0 1.7131V0.0141652C0.12578 0.0141651 0.273771 0.0111701 0.433654 0.00793451C0.756764 0.00139561 1.12844 -0.00612621 1.46353 0.00810063C2.00154 0.030943 2.60314 0.108744 3.19429 0.35763C4.31551 0.829684 5.17212 1.81263 5.69358 3.54111L27 3.98685L26.8693 4.93008C26.7133 6.05639 26.3653 7.95314 25.9389 9.63182C25.7262 10.469 25.4879 11.2767 25.236 11.915C25.1107 12.2324 24.9722 12.5333 24.8189 12.7828C24.6854 12.9998 24.4612 13.314 24.1108 13.4826L23.9863 13.5425L23.8491 13.5614C20.7703 13.9846 13.653 14.824 9.16022 14.8836C9.05237 15.1028 8.94751 15.3889 8.90383 15.6947C8.83506 16.1761 8.92569 16.6059 9.2776 16.9445C9.52083 17.1786 10.0695 17.3715 10.796 17.4791C11.4692 17.5788 12.0987 17.5793 12.3206 17.5793H22.816V19.2783H12.3172C12.0791 19.2783 11.3429 19.2783 10.5369 19.159C9.7804 19.047 8.73193 18.8008 8.06253 18.1566C7.20443 17.3308 7.06691 16.2968 7.18656 15.4592C7.26966 14.8775 7.48028 14.3422 7.70786 13.9378L4.18653 4.61892L4.17388 4.56412C3.75444 2.74775 3.08054 2.15889 2.5097 1.91855C2.18821 1.7832 1.82013 1.72377 1.38846 1.70544C1.09997 1.69319 0.842449 1.69892 0.562889 1.70514ZM9.27163 13.1829C13.515 13.1127 20.1492 12.3459 23.3266 11.9172C23.3289 11.9137 23.3311 11.91 23.3335 11.9062C23.4142 11.7748 23.5111 11.5748 23.6187 11.3022C23.8326 10.7603 24.0506 10.0311 24.2562 9.22151C24.5626 8.01529 24.8279 6.68571 25.0043 5.64442L6.27501 5.25259L9.27163 13.1829Z" fill="white"/>
<path fill-rule="evenodd" clip-rule="evenodd" d="M9.95635 19.9339C7.95107 19.9339 6.3 21.5021 6.3 23.467C6.3 25.4319 7.95107 27 9.95635 27C11.9616 27 13.6127 25.4319 13.6127 23.467C13.6127 21.5021 11.9616 19.9339 9.95635 19.9339ZM9.95635 21.5545C8.83645 21.5545 7.95407 22.4244 7.95407 23.467C7.95407 24.5095 8.83645 25.3794 9.95635 25.3794C11.0763 25.3794 11.9586 24.5095 11.9586 23.467C11.9586 22.4244 11.0763 21.5545 9.95635 21.5545Z" fill="white"/>
<path fill-rule="evenodd" clip-rule="evenodd" d="M22.8936 19.9339C20.8884 19.9339 19.2373 21.5021 19.2373 23.467C19.2373 25.4319 20.8884 27 22.8936 27C24.8989 27 26.55 25.4319 26.55 23.467C26.55 21.5021 24.8989 19.9339 22.8936 19.9339ZM22.8936 21.5545C21.7737 21.5545 20.8914 22.4244 20.8914 23.467C20.8914 24.5095 21.7737 25.3794 22.8936 25.3794C24.0135 25.3794 24.8959 24.5095 24.8959 23.467C24.8959 22.4244 24.0135 21.5545 22.8936 21.5545Z" fill="white"/>
</svg>
