<svg width="20" height="20" viewBox="0 0 20 20" fill="none" xmlns="http://www.w3.org/2000/svg">
<path d="M2.92932 20H9.45276V12.8906H7.10901V10.5469H9.45276V7.61719C9.45276 6.00174 10.767 4.6875 12.3824 4.6875H15.3121V7.03125H12.9684C12.3222 7.03125 11.7965 7.55692 11.7965 8.20312V10.5469H15.2064L14.8158 12.8906H11.7965V20H17.0699C18.6854 20 19.9996 18.6858 19.9996 17.0703V2.92969C19.9996 1.31424 18.6854 0 17.0699 0H2.92932C1.31387 0 -0.000366211 1.31424 -0.000366211 2.92969V17.0703C-0.000366211 18.6858 1.31387 20 2.92932 20ZM1.17151 2.92969C1.17151 1.96045 1.96008 1.17188 2.92932 1.17188H17.0699C18.0392 1.17188 18.8278 1.96045 18.8278 2.92969V17.0703C18.8278 18.0396 18.0392 18.8281 17.0699 18.8281H12.9684V14.0625H15.8085L16.5898 9.375H12.9684V8.20312H16.484V3.51562H12.3824C10.1208 3.51562 8.28088 5.35553 8.28088 7.61719V9.375H5.93713V14.0625H8.28088V18.8281H2.92932C1.96008 18.8281 1.17151 18.0396 1.17151 17.0703V2.92969Z" fill="#232323"/>
</svg>
