<svg width="138" height="43" viewBox="0 0 138 43" fill="none" xmlns="http://www.w3.org/2000/svg">
<path d="M39.574 11.088L54.442 42H49.024L46.378 35.952H32.224L29.578 42H24.328L39.112 11.088H39.574ZM37.474 24.234L34.114 31.71H44.53L41.212 24.276L39.406 20.034H39.322L37.474 24.234Z" fill="white"/>
<path d="M64.126 42.42C62.446 42.42 60.78 42.126 59.128 41.538C57.476 40.95 56.286 40.292 55.558 39.564L57.784 35.574C58.372 36.106 59.282 36.666 60.514 37.254C61.774 37.814 62.978 38.094 64.126 38.094C65.61 38.094 66.814 37.744 67.738 37.044C68.69 36.344 69.166 35.378 69.166 34.146C69.166 33.194 68.914 32.368 68.41 31.668C67.906 30.968 67.29 30.394 66.562 29.946C65.834 29.47 64.798 28.896 63.454 28.224C61.858 27.44 60.766 26.852 60.178 26.46C57.462 24.64 56.104 22.12 56.104 18.9C56.104 16.24 56.986 14.21 58.75 12.81C60.514 11.382 62.74 10.668 65.428 10.668C68.312 10.668 70.762 11.494 72.778 13.146L70.552 16.968C70.02 16.408 69.264 15.932 68.284 15.54C67.332 15.12 66.31 14.91 65.218 14.91C63.818 14.91 62.712 15.232 61.9 15.876C61.116 16.492 60.724 17.416 60.724 18.648C60.724 19.516 60.976 20.3 61.48 21C61.984 21.672 62.614 22.26 63.37 22.764C64.154 23.268 65.204 23.884 66.52 24.612C67.78 25.312 68.746 25.872 69.418 26.292C70.09 26.684 70.72 27.16 71.308 27.72C72.12 28.448 72.778 29.316 73.282 30.324C73.786 31.332 74.038 32.438 74.038 33.642C74.038 35.518 73.604 37.114 72.736 38.43C71.896 39.746 70.72 40.74 69.208 41.412C67.724 42.084 66.03 42.42 64.126 42.42Z" fill="white"/>
<path d="M75.1464 11.13H80.4804L89.7204 32.34L99.0024 11.13H104.294L90.0564 42H89.4264L75.1464 11.13Z" fill="white"/>
<path d="M107.449 11.13H112.153V42H107.449V11.13Z" fill="white"/>
<path d="M125.129 15.246H117.233V11.13H137.771V15.246H129.791V42H125.129V15.246Z" fill="white"/>
<g clip-path="url(#clip0)">
<path d="M15 0.156281C24.9152 0.156281 29.0326 13.2708 20.8351 18.883V25.2437C20.8351 26.5987 19.623 27.5005 18.5229 27.994C18.1714 30.6687 11.8285 30.6687 11.477 27.994C10.3756 27.4999 9.16479 26.5592 9.16479 25.2437V18.883C0.994606 13.2895 5.05011 0.156281 15 0.156281Z" fill="#518282"/>
<path d="M20.8351 19.6201V25.2436C20.8351 27.1493 18.2226 28.6941 15 28.6941C11.7773 28.6941 9.16479 27.1493 9.16479 25.2436V19.6201H20.8351Z" fill="#518282"/>
<path d="M15 26.8187C18.2226 26.8187 20.8351 25.2739 20.8351 23.3682V25.2437C20.8351 27.1493 18.2226 28.6942 15 28.6942C11.7773 28.6942 9.16479 27.1494 9.16479 25.2437V23.3682C9.16479 25.2738 11.7773 26.8187 15 26.8187Z" fill="#749B9B"/>
<path d="M15 23.0706C18.2226 23.0706 20.8351 21.5258 20.8351 19.6201V21.4955C20.8351 23.4012 18.2226 24.9461 15 24.9461C11.7773 24.9461 9.16479 23.4012 9.16479 21.4955V19.6201C9.16479 21.5257 11.7773 23.0706 15 23.0706Z" fill="#749B9B"/>
<path d="M4.65674 10.3432C4.65674 4.63083 9.28757 0 15 0C20.7124 0 25.3432 4.63083 25.3432 10.3432C25.3432 13.8906 23.5567 17.0197 20.8351 18.8829V19.62C20.8351 21.5257 18.2226 23.0705 15 23.0705C11.7773 23.0705 9.16482 21.5257 9.16482 19.62V18.8829C6.44326 17.0197 4.65674 13.8906 4.65674 10.3432Z" fill="#FFCA00"/>
<path opacity="0.3" d="M15 23.0706C18.2228 23.0706 20.8354 21.5257 20.8354 19.6201C20.8354 17.7144 18.2228 16.1696 15 16.1696C11.7772 16.1696 9.16467 17.7144 9.16467 19.6201C9.16467 21.5257 11.7772 23.0706 15 23.0706Z" fill="white"/>
<path d="M11.09 13.9508C11.7157 13.7447 12.3704 13.5056 12.9495 13.1124C13.2681 13.0104 13.458 13.1238 13.5191 13.4528V14.1361L13.5281 14.131C13.7642 13.999 13.9108 13.749 13.9108 13.4784V12.1431C13.9108 11.6016 14.2022 11.0969 14.6711 10.8261L14.719 10.7985C15.3355 10.585 15.7054 10.7985 15.8287 11.4392V12.8224L15.8384 12.8171C16.0793 12.6861 16.229 12.4344 16.229 12.1602V10.8192C16.229 9.78785 18.0791 8.68641 18.0791 10.1548V10.1921L18.9518 9.70265L18.9756 9.60515C19.1401 8.93015 20.1843 9.18463 20.0197 9.85962L17.942 18.3858C17.755 19.1534 16.7489 18.7419 16.8978 18.1313L18.7017 10.7293L17.8817 11.1891C17.561 11.2967 17.3692 11.1843 17.3062 10.852V10.2171C16.8607 10.544 16.9207 11.7054 17.0019 12.1602C17.0019 12.7179 16.6976 13.2298 16.2078 13.4962L16.1491 13.5281C15.5382 13.726 15.1737 13.5094 15.0558 12.8781V11.4967C14.8264 11.6301 14.6839 11.8776 14.6839 12.1431V13.4785C14.6839 14.0286 14.3856 14.5372 13.9054 14.8057C13.4407 15.0218 12.7462 14.9349 12.7462 14.1926V14.0995L11.8616 14.5754L13.7747 20.3831C13.9746 20.9898 12.9967 21.4566 12.754 20.7194L10.7479 14.6293C10.6549 14.3474 10.8081 14.0436 11.09 13.9508C11.1956 13.916 10.8081 14.0436 11.09 13.9508Z" fill="#CAA414"/>
<path opacity="0.3" d="M18.1452 11.5353C20.6422 11.5353 22.6663 9.51118 22.6663 7.01425C22.6663 4.51732 20.6422 2.49316 18.1452 2.49316C15.6483 2.49316 13.6241 4.51732 13.6241 7.01425C13.6241 9.51118 15.6483 11.5353 18.1452 11.5353Z" fill="white"/>
</g>
<defs>
<clipPath id="clip0">
<rect width="30" height="30" fill="white"/>
</clipPath>
</defs>
</svg>
