<svg width="20" height="20" viewBox="0 0 20 20" fill="none" xmlns="http://www.w3.org/2000/svg">
<path d="M10.6896 13.0001H10.3218C9.95364 13.0001 9.65516 12.7016 9.65516 12.3334C9.65516 12.1334 9.51724 12 9.31034 12C8.92945 12 8.62067 11.6913 8.62067 11.3104V10.3334C8.62067 10.1334 8.48276 10 8.27586 10C8.0854 10 7.93101 9.84564 7.93101 9.65518V3.00001C7.93101 2.03333 7.48274 1.33333 6.89652 1.33333C6.70609 1.33333 6.55171 1.17895 6.55171 0.988512V0.666682C6.55171 0.300001 6.24136 0 5.86204 0H5.17237C4.79305 0 4.4827 0.300001 4.4827 0.666682V0.988551C4.4827 1.17899 4.32833 1.33336 4.13789 1.33336C3.55167 1.33336 3.10341 2.03337 3.10341 3.00005V9.65522C3.10341 9.84566 2.94903 10 2.75859 10C2.5517 10 2.41378 10.1334 2.41378 10.3334V11.3104C2.41378 11.6913 2.105 12 1.72411 12C1.51721 12 1.3793 12.1334 1.3793 12.3334C1.3793 12.7016 1.08081 13.0001 0.712615 13.0001H0.344814C0.137917 13.0001 0 13.1334 0 13.3334V14.6667C0 14.8667 0.137917 15 0.344814 15C1.48747 15 2.41378 15.9263 2.41378 17.069V18C2.41378 18.2 2.5517 18.3334 2.75859 18.3334C3.32992 18.3334 3.79308 18.7965 3.79308 19.3678V19.6667C3.79308 19.8667 3.93099 20 4.13789 20C4.34479 20 4.4827 19.8667 4.4827 19.6667V19.3678C4.4827 18.7965 4.94586 18.3334 5.51719 18.3334C6.08852 18.3334 6.55167 18.7965 6.55167 19.3678V19.6667C6.55167 19.8667 6.68959 20 6.89648 20C7.10338 20 7.2413 19.8667 7.2413 19.6667V19.3678C7.2413 18.7965 7.70445 18.3334 8.27578 18.3334C8.48268 18.3334 8.62059 18.2 8.62059 18V17.069C8.62059 15.9264 9.5469 15.0001 10.6896 15.0001C10.8965 15.0001 11.0344 14.8667 11.0344 14.6667V13.3334C11.0345 13.1334 10.8965 13.0001 10.6896 13.0001ZM4.13789 2.00001H4.82756C5.03445 2.00001 5.17237 1.86669 5.17237 1.66669V1.01152C5.17237 0.82107 5.32676 0.666682 5.51721 0.666682C5.70765 0.666682 5.86204 0.82107 5.86204 1.01152V1.66669C5.86204 1.86669 5.99996 2.00001 6.20685 2.00001H6.89652C7.29383 2.00001 6.85267 2.66669 6.45536 2.66669H4.57901C4.18173 2.66669 3.74061 2.00001 4.13789 2.00001ZM3.79308 5.05747C3.79308 4.10525 4.56499 3.33333 5.51721 3.33333C6.46942 3.33333 7.24134 4.10525 7.24134 5.05746V8.27591C7.24134 9.22812 6.46942 10 5.51721 10C4.56499 10 3.79308 9.22812 3.79308 8.27591V5.05747ZM3.10341 11.3334C3.10341 10.9652 3.40188 10.6667 3.77007 10.6667H7.2643C7.63249 10.6667 7.93096 10.9652 7.93096 11.3334C7.93096 11.7016 7.63249 12 7.2643 12H3.77007C3.40188 12 3.10341 11.7016 3.10341 11.3334ZM7.93101 16.3334C7.93101 17.0698 7.33405 17.6667 6.59766 17.6667H4.43675C3.70037 17.6667 3.10341 17.0698 3.10341 16.3334C3.10341 15.597 3.70037 15.0001 4.43675 15.0001H6.59766C7.33405 15.0001 7.93101 15.597 7.93101 16.3334ZM10.3448 14C10.3448 14.1841 10.1955 14.3334 10.0114 14.3334H1.02297C0.83887 14.3334 0.689628 14.1841 0.689628 14C0.689628 13.8159 0.83887 13.6667 1.02297 13.6667H1.72411C1.93101 13.6667 2.06892 13.5334 2.06892 13.3334C2.06892 12.9652 2.36741 12.6667 2.73561 12.6667H8.2988C8.667 12.6667 8.96549 12.9652 8.96549 13.3334C8.96549 13.5334 9.1034 13.6667 9.3103 13.6667H10.0114C10.1955 13.6667 10.3448 13.8159 10.3448 14Z" fill="#FFD232"/>
<path d="M18.6206 4.6667C17.724 3.90001 16.5516 3.53337 15.3792 3.66669C13.5172 3.86669 11.9654 5.33338 11.7585 7.16671C11.6206 8.26671 11.9654 9.3334 12.6551 10.1667C13.1724 10.8 13.4482 11.5667 13.4482 12.3334V17.0001C13.4482 17.1683 13.5644 17.3144 13.6501 17.4592C14.0717 18.1717 14.9411 18.6668 15.862 18.6668C16.783 18.6668 17.6524 18.1718 18.074 17.4592C18.1596 17.3144 18.2759 17.1683 18.2759 17.0001V12.3334C18.2759 12.3277 18.2753 12.3223 18.2751 12.3167C18.2753 12.3111 18.2759 12.3057 18.2759 12.3C18.2759 11.5 18.5517 10.7667 19.069 10.1667C19.6552 9.46668 20 8.56667 20 7.63335C19.9999 6.50002 19.4827 5.43334 18.6206 4.6667ZM17.5861 14.9426C17.5861 15.8948 16.8142 16.6667 15.862 16.6667C14.9098 16.6667 14.1379 15.8948 14.1379 14.9426V14.3909C14.1379 13.4386 14.9098 12.6667 15.862 12.6667C16.8142 12.6667 17.5861 13.4386 17.5861 14.3909V14.9426ZM15.862 18.0001C15.7974 18.0001 15.7332 17.9968 15.6697 17.9905C15.0912 17.9332 15.2806 17.3334 15.862 17.3334C16.4433 17.3334 16.6327 17.9332 16.0542 17.9905C15.9907 17.9968 15.9266 18.0001 15.862 18.0001ZM18.5171 9.76672C18.1156 10.2276 17.8419 10.7768 17.6961 11.35C17.6041 11.7118 17.2995 12 16.9261 12C16.5289 12 16.2068 11.678 16.2068 11.2807V10.023C16.2068 9.64213 16.5156 9.33336 16.8965 9.33336C17.1034 9.33336 17.2413 9.20004 17.2413 9.00003C17.2413 8.80003 17.1034 8.66671 16.8965 8.66671H16.5402C16.3561 8.66671 16.2068 8.51747 16.2068 8.33337C16.2068 8.14927 16.3561 8.00003 16.5402 8.00003H17.5861C17.793 8.00003 17.9309 7.86671 17.9309 7.66671C17.9309 7.46671 17.793 7.33339 17.5861 7.33339H16.5402C16.3561 7.33339 16.2068 7.18415 16.2068 7.00005C16.2068 6.81595 16.3561 6.66671 16.5402 6.66671H17.931C18.1379 6.66671 18.2758 6.53338 18.2758 6.33338C18.2758 6.13338 18.1379 6.00006 17.931 6.00006H13.793C13.5861 6.00006 13.4482 6.13338 13.4482 6.33338C13.4482 6.53338 13.5861 6.66671 13.793 6.66671H15.1838C15.3679 6.66671 15.5172 6.81595 15.5172 7.00005C15.5172 7.18415 15.3679 7.33339 15.1838 7.33339H14.1379C13.931 7.33339 13.793 7.46671 13.793 7.66671C13.793 7.86671 13.931 8.00003 14.1379 8.00003H15.1838C15.3679 8.00003 15.5171 8.14927 15.5171 8.33337C15.5171 8.51747 15.3679 8.66671 15.1838 8.66671H14.8275C14.6206 8.66671 14.4827 8.80003 14.4827 9.00003C14.4827 9.20004 14.6206 9.33336 14.8275 9.33336C15.2084 9.33336 15.5171 9.64213 15.5171 10.023V11.2807C15.5171 11.678 15.1951 12 14.7978 12C14.4245 12 14.1193 11.7117 14.0226 11.3511C13.8687 10.7775 13.5835 10.2279 13.2068 9.76672C12.6206 9.06671 12.3448 8.16671 12.4482 7.26671C12.6206 5.73338 13.8965 4.50002 15.4827 4.33338C16.4827 4.23338 17.4482 4.53338 18.1723 5.1667C18.8965 5.80002 19.3103 6.73338 19.3103 7.66671C19.3103 8.43335 19.0344 9.16671 18.5171 9.76672Z" fill="#FFD232"/>
</svg>
