<svg width="20" height="20" viewBox="0 0 20 20" fill="none" xmlns="http://www.w3.org/2000/svg">
<path d="M19.6667 0H5.33333C5.03333 0 4.73333 0.17776 4.53333 0.488906L0.300001 6.48891C0.1 6.75557 0 7.15557 0 7.51115V19.5556C0 19.8222 0.133321 20 0.333321 20H19.6667C19.8667 20 20 19.8222 20 19.5556V0.444427C20 0.17776 19.8667 0 19.6667 0ZM19.3334 10.6667H2.66669V9.11109C2.66669 8.97776 2.70001 8.8 2.80001 8.71109L6.26669 3.73333C6.36669 3.64443 6.46669 3.55557 6.60001 3.55557H19.3334V10.6667ZM0.666681 7.51109C0.666681 7.37776 0.700001 7.24443 0.800002 7.11109L5.00001 1.06667C5.10001 0.977761 5.20001 0.888906 5.33333 0.888906H19.3334V2.66667H6.60001C6.26669 2.66667 5.96669 2.84443 5.76669 3.15557L2.3 8.08891C2.1 8.35557 2 8.75557 2 9.11115V10.6667H0.666681V7.51109ZM19.3334 19.1111H0.666681V11.5556H19.3334L19.3334 19.1111Z" fill="#848484"/>
<path d="M9.00002 15.1111C9.10002 15.1111 9.1667 15.0667 9.23334 14.9778L9.66666 14.4V17.3333C9.66666 17.6 9.79998 17.7778 9.99998 17.7778C10.2 17.7778 10.3333 17.6 10.3333 17.3333V14.4L10.7666 14.9778C10.8333 15.0667 10.8999 15.1111 10.9999 15.1111C11.0999 15.1111 11.1666 15.0667 11.2333 14.9778C11.3666 14.8 11.3666 14.5333 11.2333 14.3555L10.2903 13.0982C10.2358 12.9676 10.1327 12.8889 9.9999 12.8889C9.86709 12.8889 9.76404 12.9676 9.70951 13.0982L8.76654 14.3555C8.63322 14.5333 8.63322 14.7999 8.76654 14.9778C8.83334 15.0667 8.90002 15.1111 9.00002 15.1111Z" fill="#848484"/>
</svg>
