<svg width="20" height="10" viewBox="0 0 20 10" fill="none" xmlns="http://www.w3.org/2000/svg">
<path d="M18.4359 2.6955C18.1326 2.67218 17.8503 2.6071 17.5936 2.50625L19.5341 0.565736C19.6672 0.432638 19.6672 0.232971 19.5341 0.0998334C19.401 -0.0332649 19.2013 -0.0332649 19.0682 0.0998334L16.9972 2.17083C16.7896 2.01083 16.6124 1.81876 16.4725 1.59734L16.3727 1.43093C15.8403 0.532432 14.8752 0 13.8436 0H9.48418C8.65225 0 7.85358 0.366069 7.28784 0.998334L6.82194 1.46424C5.95674 2.42927 4.79201 3.06153 3.49417 3.22794L1.46424 3.49417C0.632266 3.62727 0 4.3261 0 5.15804V6.65554C0 7.5873 0.732099 8.31944 1.6639 8.31944H3.02347C3.18317 9.26061 4.00687 9.98335 4.99167 9.98335C5.97648 9.98335 6.80018 9.26061 6.95988 8.31944H13.6724C13.8321 9.26061 14.6558 9.98335 15.6406 9.98335C16.6254 9.98335 17.4491 9.26061 17.6088 8.31944H18.3028C19.2346 8.31944 19.9667 7.58734 20 6.68884V4.35941C20 3.49417 19.3011 2.76203 18.4359 2.6955ZM4.99167 9.31778C4.25957 9.31778 3.66057 8.71878 3.66057 7.98668C3.66057 7.25458 4.25957 6.65558 4.99167 6.65558C5.72377 6.65558 6.32277 7.25458 6.32277 7.98668C6.32277 8.71878 5.72377 9.31778 4.99167 9.31778ZM15.6406 9.31778C14.9085 9.31778 14.3095 8.71878 14.3095 7.98668C14.3095 7.25458 14.9085 6.65558 15.6406 6.65558C16.3727 6.65558 16.9717 7.25458 16.9717 7.98668C16.9717 8.71878 16.3727 9.31778 15.6406 9.31778ZM19.3011 6.65554C19.3011 7.22127 18.8685 7.65387 18.3028 7.65387H17.6088C17.4964 6.9917 17.0553 6.43805 16.4605 6.16784C16.4473 6.16179 16.4342 6.15559 16.4209 6.14982C16.4125 6.14623 16.404 6.143 16.3956 6.13952C16.374 6.13059 16.3523 6.12186 16.3304 6.11371C16.3245 6.11153 16.3184 6.1095 16.3125 6.10735C16.2881 6.09854 16.2635 6.09012 16.2387 6.08224C16.2333 6.08052 16.2279 6.07892 16.2225 6.07729C16.1972 6.06953 16.1717 6.06219 16.146 6.05545C16.1403 6.05396 16.1346 6.05248 16.1288 6.05104C16.1036 6.04464 16.0781 6.03872 16.0524 6.0333C16.0459 6.03193 16.0395 6.03053 16.033 6.02924C16.0082 6.02425 15.9832 6.0198 15.9581 6.01575C15.9506 6.01454 15.9432 6.01325 15.9357 6.01212C15.9115 6.00849 15.8871 6.00549 15.8625 6.00276C15.8542 6.00182 15.846 6.00073 15.8376 5.99988C15.8131 5.99746 15.7884 5.9957 15.7636 5.99418C15.7554 5.99367 15.7473 5.99289 15.7391 5.9925C15.7064 5.99091 15.6735 5.98997 15.6404 5.98997C15.6073 5.98997 15.5745 5.99091 15.5418 5.9925C15.5336 5.99289 15.5255 5.99367 15.5173 5.99418C15.4925 5.9957 15.4678 5.99746 15.4433 5.99988C15.4349 6.00069 15.4267 6.00182 15.4183 6.00276C15.3938 6.00549 15.3694 6.00853 15.3451 6.01212C15.3377 6.01325 15.3302 6.01454 15.3228 6.01575C15.2976 6.0198 15.2727 6.02425 15.2478 6.0292C15.2413 6.03053 15.2349 6.03189 15.2284 6.03326C15.2028 6.03868 15.1773 6.04461 15.152 6.051C15.1463 6.05244 15.1406 6.05389 15.1349 6.05541C15.1092 6.06219 15.0837 6.06949 15.0584 6.07729C15.053 6.07892 15.0476 6.08052 15.0423 6.08224C15.0174 6.09012 14.9928 6.09854 14.9684 6.10735C14.9625 6.1095 14.9565 6.11153 14.9506 6.11371C14.9286 6.1219 14.9069 6.13063 14.8853 6.1396C14.8769 6.14307 14.8684 6.14631 14.8601 6.14986C14.8467 6.15563 14.8336 6.16187 14.8204 6.16791C14.2256 6.43817 13.7845 6.99178 13.6722 7.65391H6.95988C6.84752 6.99178 6.4065 6.43821 5.81183 6.16795C5.79857 6.16187 5.78543 6.15563 5.77201 6.14986C5.76371 6.14631 5.75524 6.14307 5.74686 6.1396C5.72526 6.13067 5.70353 6.12194 5.68154 6.11371C5.67565 6.11153 5.66964 6.1095 5.66372 6.10735C5.6393 6.09854 5.6147 6.09012 5.58986 6.08224C5.58451 6.08056 5.57909 6.07896 5.57371 6.07729C5.54844 6.06953 5.52294 6.06219 5.4972 6.05541C5.4915 6.05393 5.48581 6.05244 5.48008 6.051C5.45481 6.04461 5.42934 6.03868 5.40364 6.03326C5.39717 6.03189 5.39074 6.03049 5.38426 6.0292C5.35946 6.02421 5.33446 6.01976 5.30931 6.01571C5.30186 6.0145 5.29445 6.01321 5.28696 6.01208C5.26275 6.00845 5.23829 6.00545 5.21376 6.00272C5.20546 6.00179 5.19719 6.00069 5.18885 5.99984C5.16432 5.99742 5.13959 5.99566 5.11479 5.99414C5.1066 5.99364 5.09853 5.99286 5.0903 5.99247C5.05766 5.99087 5.02478 5.98993 4.99167 5.98993C4.95857 5.98993 4.92569 5.99087 4.89305 5.99247C4.88486 5.99286 4.87675 5.99364 4.86856 5.99414C4.84376 5.99566 4.81903 5.99742 4.7945 5.99984C4.78616 6.00065 4.77789 6.00179 4.76958 6.00272C4.74505 6.00545 4.7206 6.00849 4.69639 6.01208C4.6889 6.01321 4.68149 6.0145 4.67404 6.01571C4.64889 6.01976 4.62389 6.02421 4.59909 6.0292C4.59261 6.03049 4.58614 6.03189 4.5797 6.03326C4.55401 6.03868 4.52854 6.04461 4.50327 6.051C4.49758 6.05244 4.49184 6.05389 4.48615 6.05541C4.46041 6.06219 4.43495 6.06949 4.40964 6.07725C4.40426 6.07888 4.39883 6.08048 4.39345 6.0822C4.36861 6.09008 4.34404 6.0985 4.31963 6.10731C4.31366 6.10946 4.30766 6.11149 4.30173 6.11367C4.27978 6.12186 4.25809 6.13055 4.23653 6.13949C4.2281 6.14296 4.2196 6.14619 4.21126 6.14978C4.19792 6.15555 4.18482 6.16175 4.1716 6.1678C3.57681 6.43801 3.13571 6.99166 3.02336 7.65383H1.6639C1.09817 7.65383 0.665569 7.22124 0.665569 6.6555V5.158C0.665569 4.65883 1.03164 4.22623 1.53081 4.19293L3.56074 3.92669C5.02498 3.76029 6.35608 3.06146 7.32115 1.96329L7.78705 1.43086C8.21965 0.931688 8.81865 0.665452 9.48422 0.665452H13.8436C14.6423 0.665452 15.3744 1.09805 15.7737 1.73036L15.8736 1.89676C16.1081 2.28771 16.4382 2.61248 16.8328 2.85387C16.8641 2.88062 16.8964 2.90005 16.933 2.91237C17.3562 3.1499 17.8466 3.29505 18.3694 3.32773C18.9018 3.361 19.3012 3.79363 19.3012 4.32607L19.3011 6.65554Z"/>
</svg>
