<svg width="20" height="20" viewBox="0 0 20 20" fill="none" xmlns="http://www.w3.org/2000/svg">
<path d="M2.66668 8.33332H17.3334C17.4334 8.33332 17.5334 8.3 17.6 8.2C17.6667 8.1 17.7 8 17.6667 7.9C16.7 4.43332 13.5667 2 10 2C6.43332 2 3.3 4.43332 2.33332 7.9C2.33332 8 2.33332 8.13332 2.4 8.2C2.46668 8.3 2.56668 8.33332 2.66668 8.33332ZM10 2.66668C13.1 2.66668 15.9 4.7 16.8667 7.66668H3.1C4.1 4.7 6.9 2.66668 10 2.66668Z"/>
<path d="M17.6667 9.73332C17.5334 9.7 17.3667 9.7 17.2334 9.7C15.8 9.7 14.9 10.4333 14.9 11.6333C14.9 12.7 15.6334 13.6333 16.7 13.9H16.7667C16.9 13.9 17 13.8333 17 13.7667C17.6 12.6 17.9334 11.7667 17.9334 10.4334C17.9334 10.3334 17.9334 10.2667 17.9334 10.1667V10.0334C17.9333 9.9 17.8333 9.76668 17.6667 9.73332ZM17.3667 10.3667C17.3667 11.4667 17.1 12.2 16.6334 13.1334C16 12.9 15.6 12.3 15.6 11.6C15.6 10.4667 16.7667 10.3333 17.2667 10.3333C17.2667 10.3333 17.3 10.3333 17.3667 10.3V10.3667Z"/>
<path d="M10.0333 14.1C7.93332 14.1 6.06664 14.8333 5.26664 16C5.16664 16.1667 5.19996 16.3667 5.33332 16.4667C6.7 17.4667 8.3 18 10 18C11.6667 18 13.3 17.4667 14.7 16.4667C14.8333 16.3667 14.8667 16.1334 14.7667 16C13.9667 14.8333 12.1 14.1 10.0333 14.1ZM10 17.3333C8.56668 17.3333 7.2 16.9333 6 16.1333C6.8 15.3 8.33332 14.7666 10 14.7666C11.6667 14.7666 13.2333 15.3 14 16.1333C12.8 16.9333 11.4333 17.3333 10 17.3333Z"/>
<path d="M10 0C4.5 0 0 4.5 0 10C0 15.5 4.5 20 10 20C15.5 20 20 15.5 20 10C20 4.5 15.5 0 10 0ZM10 19.3333C4.86668 19.3333 0.66668 15.1333 0.66668 10C0.66668 4.86668 4.86668 0.66668 10 0.66668C15.1333 0.66668 19.3333 4.86668 19.3333 10C19.3333 15.1333 15.1333 19.3333 10 19.3333Z"/>
<path d="M2.7 9.26668C2.56668 9.26668 2.4 9.26668 2.26668 9.3C2.13336 9.33332 2 9.43332 2 9.6V10C2 11.3 2.33332 12.5667 2.93332 13.7333C3 13.8333 3.1 13.9 3.23332 13.9C3.26664 13.9 3.3 13.9 3.23332 13.8667C4.3 13.6 5.03332 12.6667 5.03332 11.6C5.03332 10.3333 4 9.26668 2.7 9.26668ZM3.4 13.1667C2.9 12.1667 2.66668 11.1 2.66668 10C2.66668 9.96668 2.66668 9.96668 2.66668 9.93332C3.63336 9.9 4.43336 10.6666 4.43336 11.6333C4.43332 12.3 4.03332 12.9 3.4 13.1667Z"/>
<path d="M6.66668 11C6.66668 11.9667 8.1 12.6667 10 12.6667C11.9 12.6667 13.3333 11.9667 13.3333 11C13.3333 10.0333 11.9 9.33332 10 9.33332C8.1 9.33332 6.66668 10.0333 6.66668 11ZM12.6667 11C12.6667 11.4 11.6334 12 10 12C8.36668 12 7.33332 11.4 7.33332 11C7.33332 10.6 8.36664 10 10 10C11.6333 10 12.6667 10.6 12.6667 11Z"/>
</svg>
