<svg width="20" height="14" viewBox="0 0 20 14" fill="none" xmlns="http://www.w3.org/2000/svg">
<path d="M19.6667 3.99997H18.3334C18.2001 3.99997 18.0667 4.09997 18.0334 4.23329L17.1001 6.99997H16.2001L15.3001 5.49997C15.2334 5.39997 15.1334 5.33329 15.0001 5.33329H13.6667V4.33329C13.6667 4.13329 13.5334 3.99997 13.3334 3.99997H11V2.66665H12C12.2 2.66665 12.3333 2.53333 12.3333 2.33333V0.333321C12.3333 0.13332 12.2 0 12 0H6.00001C5.80001 0 5.66669 0.13332 5.66669 0.333321V2.33333C5.66669 2.53333 5.80001 2.66665 6.00001 2.66665H7.00001V3.99997H4.33333C4.23333 3.99997 4.16665 4.03329 4.10001 4.09997C4.03337 4.16665 4.00001 4.23329 4.00001 4.33329V5.33329H1.66668C1.46668 5.33329 1.33336 5.46661 1.33336 5.66661V7.66662H0.666681V6.66665C0.666681 6.46665 0.53336 6.33333 0.33336 6.33333C0.13336 6.33333 0 6.46665 0 6.66665V9.33334C0 9.53334 0.133321 9.66666 0.333321 9.66666C0.533321 9.66666 0.666642 9.53334 0.666642 9.33334V8.33334H1.33332V11C1.33332 11.2 1.46664 11.3333 1.66664 11.3333H4.16665L5.39997 13.2C5.46665 13.2667 5.56665 13.3333 5.66665 13.3333H15C15.1334 13.3333 15.2334 13.2667 15.3 13.1333L16.2 11.3333H17.1334L18.0334 13.1333C18.1 13.2667 18.2 13.3333 18.3334 13.3333H19.6667C19.8667 13.3333 20 13.2 20 13V4.33333C20 4.13333 19.8667 3.99997 19.6667 3.99997ZM6.33333 0.666642H11.6667V1.99997H6.33333V0.666642ZM7.6667 2.66665H10.3334V3.99997H7.6667V2.66665ZM2 10.6667V5.99997H4.00001V10.6667H2ZM14.7667 12.6667H5.83333L4.66665 10.9009V4.66665H13V5.66665C13 5.86665 13.1333 5.99997 13.3333 5.99997H14.8L15.6667 7.44443V10.8667L14.7667 12.6667ZM16.3334 10.6667V7.66666H17V10.6667H16.3334ZM19.3334 12.6667H18.5334L17.6667 10.9952V7.33451L18.5667 4.66665H19.3334V12.6667Z"/>
</svg>
