<svg width="20" height="20" viewBox="0 0 20 20" fill="none" xmlns="http://www.w3.org/2000/svg">
<path d="M6.1 8.63332C5.93332 8.43332 5.66668 8.33332 5.4 8.33332H3.33332C2.76664 8.33332 2.33332 8.76664 2.33332 9.33332V16.3333C2.33332 16.9 2.76664 17.3333 3.33332 17.3333H6.66664C7.23332 17.3333 7.66664 16.9 7.66664 16.3333V10.6C7.66664 10.3333 7.56664 10.1 7.36664 9.9L6.1 8.63332ZM7 16.3333C7 16.5333 6.86668 16.6666 6.66668 16.6666H3.33332C3.13332 16.6666 3 16.5333 3 16.3333V9.33332C3 9.13332 3.13332 9 3.33332 9H5.4C5.5 9 5.56668 9.03332 5.63332 9.1L6.9 10.3667C6.96668 10.4334 7 10.5 7 10.6V16.3333Z"/>
<path d="M12.9 11.3C13.0667 11.3333 13.2 11.3333 13.3333 11.3333C13.8 11.3333 14.2333 11.1666 14.5666 10.8666C15.0333 10.4666 15.3 9.89996 15.3 9.29996C15.3 8.99996 15.2 8.69996 15.0333 8.43328L14.8666 8.1666C14.6333 7.79992 14.3999 7.43328 14.1999 7.03328L13.5999 5.83328C13.5332 5.69996 13.4332 5.63328 13.2999 5.63328C13.1666 5.63328 13.0666 5.73328 12.9999 5.83328L12.5332 6.79996C12.2999 7.29996 12.0332 7.83328 11.6666 8.29996C11.4666 8.56664 11.3666 8.86664 11.3332 9.19996C11.2667 10.2 11.9333 11.1 12.9 11.3ZM12.0333 9.26668C12.0333 9.06668 12.1 8.9 12.2333 8.73336C12.6 8.20004 12.9 7.63336 13.1666 7.10004L13.3333 6.73336L13.6333 7.33336C13.8333 7.76668 14.1 8.13336 14.3333 8.53336L14.5333 8.83336C14.6666 9.00004 14.7 9.16668 14.7 9.36668C14.7 9.76668 14.5 10.1334 14.2 10.4C13.8667 10.6667 13.4667 10.7667 13.0667 10.6667C12.4333 10.5333 12 9.93332 12.0333 9.26668Z"/>
<path d="M5.33332 11H4.33332C4.13332 11 4 11.1333 4 11.3333C4 11.5333 4.13332 11.6666 4.33332 11.6666H5.33332C5.53332 11.6666 5.66664 11.5333 5.66664 11.3333C5.66664 11.1333 5.53332 11 5.33332 11Z"/>
<path d="M5.33332 12.6667H4.33332C4.13332 12.6667 4 12.8 4 13C4 13.2 4.13332 13.3333 4.33332 13.3333H5.33332C5.53332 13.3333 5.66664 13.2 5.66664 13C5.66668 12.8 5.53332 12.6667 5.33332 12.6667Z"/>
<path d="M5.33332 14.3333H4.33332C4.13332 14.3333 4 14.4666 4 14.6666C4 14.8666 4.13332 15 4.33332 15H5.33332C5.53332 15 5.66664 14.8666 5.66664 14.6666C5.66664 14.4666 5.53332 14.3333 5.33332 14.3333Z"/>
<path d="M19.5 5.06668L16.9333 2.5C16.6333 2.16668 16.2 2 15.7666 2H11.6666V1C11.6666 0.43332 11.2333 0 10.6666 0H9.33332C8.76664 0 8.33332 0.43332 8.33332 1V2C7.4 2 6.66664 2.73332 6.66664 3.66668V5.7659C6.48555 5.69988 6.29281 5.66668 6.09996 5.66668H3.33332V4.66668C3.33332 4.1 2.9 3.66668 2.33332 3.66668H1.66668C1.1 3.66668 0.66668 4.1 0.66668 4.66668V5.73336C0.26668 5.86668 0 6.23332 0 6.66668V19C0 19.5667 0.43332 20 1 20H18.3333C19.2667 20 20 19.2667 20 18.3333V6.23332C20 5.8 19.8 5.36668 19.5 5.06668ZM9.33332 8.06668V5C9.33332 4.8 9.46664 4.66668 9.66664 4.66668H14.9666C15.2333 4.66668 15.4666 4.76668 15.6666 4.96668L17.0333 6.33336C17.2333 6.50004 17.3333 6.76668 17.3333 7.03336V17C17.3333 17.2 17.2 17.3333 17 17.3333H10.3333C10.1333 17.3333 10 17.2 10 17V9.26668C10 9 9.9 8.76668 9.7 8.56668L9.43332 8.3C9.36668 8.23332 9.33332 8.16668 9.33332 8.06668ZM0.66668 19V6.66668C0.66668 6.46668 0.8 6.33336 1 6.33336C1.2 6.33336 1.33332 6.20004 1.33332 6.00004V4.66672C1.33332 4.46672 1.46664 4.3334 1.66664 4.3334H2.33332C2.53332 4.3334 2.66664 4.46672 2.66664 4.66672V6C2.66664 6.2 2.79996 6.33332 2.99996 6.33332H6.09996C6.36664 6.33332 6.59996 6.43332 6.79996 6.63332L9.03328 8.86664C9.23328 9.03332 9.33328 9.29996 9.33328 9.56664V19C9.33328 19.2 9.19996 19.3333 8.99996 19.3333H1C0.8 19.3333 0.66668 19.2 0.66668 19ZM19.3333 18.3333C19.3333 18.9 18.9 19.3333 18.3333 19.3333H9.94625C9.98102 19.2297 10 19.1178 10 19V17.9463C10.1036 17.981 10.2155 18 10.3333 18H17C17.5667 18 18 17.5667 18 17V7.03332C18 6.6 17.8 6.16664 17.5 5.86664L16.1333 4.5C15.8333 4.16668 15.4 4 14.9666 4H9.66664C9.09996 4 8.66664 4.43332 8.66664 5V7.53332L7.33332 6.2V3.66668C7.33332 3.1 7.76664 2.66668 8.33332 2.66668H8.66664C8.86664 2.66668 8.99996 2.53336 8.99996 2.33336V1C8.99996 0.8 9.13328 0.66668 9.33328 0.66668H10.6666C10.8666 0.66668 10.9999 0.8 10.9999 1V2.33332C10.9999 2.53332 11.1332 2.66664 11.3332 2.66664H15.7666C16.0332 2.66664 16.2999 2.76664 16.4666 2.96664L19.0332 5.53332C19.2332 5.7 19.3332 5.96664 19.3332 6.23332V18.3333H19.3333Z"/>
<path d="M15 12.6667H11.6667C11.4667 12.6667 11.3334 12.8 11.3334 13C11.3334 13.2 11.4667 13.3333 11.6667 13.3333H15C15.2 13.3333 15.3333 13.2 15.3333 13C15.3333 12.8 15.2 12.6667 15 12.6667Z"/>
<path d="M11 15H15.6667C15.8667 15 16 14.8667 16 14.6667C16 14.4667 15.8667 14.3334 15.6667 14.3334H11C10.8 14.3334 10.6667 14.4667 10.6667 14.6667C10.6667 14.8667 10.8 15 11 15Z"/>
</svg>
