<svg width="20" height="20" viewBox="0 0 20 20" fill="none" xmlns="http://www.w3.org/2000/svg">
<path fill-rule="evenodd" clip-rule="evenodd" d="M14.4649 13.6431L14.4598 13.6414C14.41 13.6244 14.3163 13.6143 14.2043 13.6394C14.1524 13.651 14.1105 13.6673 14.0816 13.6823C14.0678 13.6894 14.0598 13.6948 14.0564 13.6972L14.0015 13.7536L11.1005 15.9435L10.4564 15.5997C7.64977 14.1015 5.87824 12.3319 4.39748 9.54063L4.05694 8.8987L6.18999 6.06325L6.24714 6.00618C6.37009 5.88339 6.41841 5.70583 6.36374 5.5249C5.94917 4.2655 5.73931 2.94628 5.73931 1.6049C5.73933 1.35117 5.53108 1.14286 5.27738 1.14286H1.60447C1.35076 1.14286 1.14249 1.35113 1.14249 1.60484C1.14249 11.1169 8.88277 18.8571 18.3948 18.8571C18.6485 18.8571 18.8568 18.6489 18.8568 18.3952V14.7326V14.7326C18.8567 14.4789 18.6484 14.2706 18.3948 14.2706C17.051 14.2706 15.7275 14.0604 14.4701 13.6448L14.4649 13.6431ZM19.9996 14.7325V18.3952C19.9996 19.2801 19.2797 20 18.3948 20C8.25159 20 -0.000366211 11.7481 -0.000366211 1.60484C-0.000366211 0.719948 0.71958 0 1.60447 0H5.27738C6.16227 0 6.88222 0.719948 6.88217 1.6049C6.88217 2.8299 7.07425 4.03161 7.45238 5.17693C7.63633 5.76286 7.48279 6.38734 7.05472 6.81484L5.40707 9.00505C6.78019 11.5934 8.38664 13.1994 10.9946 14.5915L13.2434 12.8939C13.5841 12.544 14.2704 12.3693 14.8287 12.5597C15.968 12.9362 17.1703 13.1277 18.3948 13.1277C19.2796 13.1277 19.9996 13.8477 19.9996 14.7325Z"/>
</svg>
