<svg width="21" height="20" viewBox="0 0 21 20" fill="none" xmlns="http://www.w3.org/2000/svg">
<path d="M10.7236 20C5.20956 20 0.723633 15.5141 0.723633 10C0.723633 4.48593 5.20956 0 10.7236 0C16.2377 0 20.7236 4.48593 20.7236 10C20.7236 15.5141 16.2377 20 10.7236 20ZM10.7236 1.42853C5.99738 1.42853 2.15216 5.27374 2.15216 10C2.15216 14.7263 5.99738 18.5715 10.7236 18.5715C15.4499 18.5715 19.2951 14.7263 19.2951 10C19.2951 5.27374 15.4499 1.42853 10.7236 1.42853Z" fill="#F93737"/>
<path d="M14.2951 14.2857C14.1123 14.2857 13.9295 14.216 13.79 14.0764L6.64725 6.93359C6.36816 6.65451 6.36816 6.20255 6.64725 5.92361C6.92618 5.64468 7.3783 5.64453 7.65723 5.92361L14.8 13.0664C15.0791 13.3455 15.0791 13.7975 14.8 14.0764C14.6606 14.216 14.4779 14.2857 14.2951 14.2857Z" fill="#F93737"/>
<path d="M7.15216 14.2857C6.96936 14.2857 6.78671 14.216 6.64725 14.0764C6.36816 13.7975 6.36816 13.3453 6.64725 13.0664L13.79 5.92361C14.0691 5.64453 14.5211 5.64453 14.8 5.92361C15.0789 6.20255 15.0791 6.65466 14.8 6.93359L7.65723 14.0764C7.51776 14.216 7.33496 14.2857 7.15216 14.2857Z" fill="#F93737"/>
</svg>
