<svg width="27" height="27" viewBox="0 0 27 27" fill="none" xmlns="http://www.w3.org/2000/svg">
<path d="M23.046 17.454C21.5756 15.9837 19.8254 14.8952 17.9159 14.2363C19.9611 12.8277 21.3047 10.4703 21.3047 7.80469C21.3047 3.50119 17.8035 0 13.5 0C9.19651 0 5.69531 3.50119 5.69531 7.80469C5.69531 10.4703 7.03893 12.8277 9.08413 14.2363C7.17462 14.8952 5.42447 15.9837 3.95408 17.454C1.40426 20.0039 0 23.394 0 27H2.10938C2.10938 20.7192 7.21918 15.6094 13.5 15.6094C19.7808 15.6094 24.8906 20.7192 24.8906 27H27C27 23.394 25.5957 20.0039 23.046 17.454ZM13.5 13.5C10.3596 13.5 7.80469 10.9451 7.80469 7.80469C7.80469 4.66425 10.3596 2.10938 13.5 2.10938C16.6404 2.10938 19.1953 4.66425 19.1953 7.80469C19.1953 10.9451 16.6404 13.5 13.5 13.5Z" fill="white"/>
</svg>
